<svg width="24" height="24" viewBox="0 0 24 24" fill="none" xmlns="http://www.w3.org/2000/svg">
<path d="M21.3197 7.17244L16.8276 2.68035C16.6129 2.46399 16.3573 2.29244 16.0757 2.17565C15.7942 2.05886 15.4922 1.99916 15.1874 2.00001H8.8127C8.50787 1.99916 8.2059 2.05886 7.92432 2.17565C7.64275 2.29244 7.38718 2.46399 7.17244 2.68035L2.68035 7.17244C2.46399 7.38718 2.29244 7.64275 2.17565 7.92432C2.05886 8.2059 1.99916 8.50787 2.00001 8.8127V15.1874C1.99916 15.4922 2.05886 15.7942 2.17565 16.0757C2.29244 16.3573 2.46399 16.6129 2.68035 16.8276L7.17244 21.3197C7.38718 21.5361 7.64275 21.7076 7.92432 21.8244C8.2059 21.9412 8.50787 22.0009 8.8127 22.0001H15.1874C15.4922 22.0009 15.7942 21.9412 16.0757 21.8244C16.3573 21.7076 16.6129 21.5361 16.8276 21.3197L21.3197 16.8276C21.5361 16.6129 21.7076 16.3573 21.8244 16.0757C21.9412 15.7942 22.0009 15.4922 22.0001 15.1874V8.8127C22.0009 8.50787 21.9412 8.2059 21.8244 7.92432C21.7076 7.64275 21.5361 7.38718 21.3197 7.17244ZM15.2712 14.302C15.4021 14.4331 15.4757 14.6107 15.4757 14.7959C15.4757 14.9812 15.4021 15.1588 15.2712 15.2899C15.1402 15.4208 14.9625 15.4943 14.7773 15.4943C14.5921 15.4943 14.4144 15.4208 14.2834 15.2899L12 12.9879L9.69807 15.2899C9.56701 15.4208 9.38936 15.4943 9.20413 15.4943C9.0189 15.4943 8.84124 15.4208 8.71018 15.2899C8.57929 15.1588 8.50577 14.9812 8.50577 14.7959C8.50577 14.6107 8.57929 14.4331 8.71018 14.302L11.0121 12L8.71018 9.69807C8.58672 9.56557 8.5195 9.39031 8.52269 9.20923C8.52589 9.02815 8.59925 8.85538 8.72731 8.72731C8.85538 8.59925 9.02815 8.52589 9.20923 8.52269C9.39031 8.5195 9.56557 8.58672 9.69807 8.71018L12 11.0121L14.302 8.71018C14.4345 8.58672 14.6098 8.5195 14.7908 8.52269C14.9719 8.52589 15.1447 8.59925 15.2728 8.72731C15.4008 8.85538 15.4742 9.02815 15.4774 9.20923C15.4806 9.39031 15.4134 9.56557 15.2899 9.69807L12.9879 12L15.2712 14.302Z" fill="#E6F4FF"/>
</svg>
